<svg width="48" height="46" viewBox="0 0 48 46" fill="none" xmlns="http://www.w3.org/2000/svg">
    <rect x="0.5" y="0.5" width="47" height="45" rx="22.5" fill="#2D2632"/>
    <rect x="0.5" y="0.5" width="47" height="45" rx="22.5" stroke="black"/>
    <path d="M14.4004 14.8399C14.2732 14.8381 14.1469 14.8616 14.0289 14.9091C13.9108 14.9565 13.8034 15.0269 13.7128 15.1163C13.6222 15.2056 13.5502 15.312 13.5011 15.4294C13.452 15.5468 13.4268 15.6727 13.4268 15.7999C13.4268 15.9272 13.452 16.0531 13.5011 16.1705C13.5502 16.2879 13.6222 16.3943 13.7128 16.4836C13.8034 16.5729 13.9108 16.6434 14.0289 16.6908C14.1469 16.7382 14.2732 16.7617 14.4004 16.7599H33.6004C33.7276 16.7617 33.8539 16.7382 33.972 16.6908C34.09 16.6434 34.1975 16.5729 34.2881 16.4836C34.3787 16.3943 34.4506 16.2879 34.4997 16.1705C34.5488 16.0531 34.5741 15.9272 34.5741 15.7999C34.5741 15.6727 34.5488 15.5468 34.4997 15.4294C34.4506 15.312 34.3787 15.2056 34.2881 15.1163C34.1975 15.0269 34.09 14.9565 33.972 14.9091C33.8539 14.8616 33.7276 14.8381 33.6004 14.8399H14.4004ZM14.4004 22.0399C14.2732 22.0381 14.1469 22.0616 14.0289 22.1091C13.9108 22.1565 13.8034 22.2269 13.7128 22.3163C13.6222 22.4056 13.5502 22.512 13.5011 22.6294C13.452 22.7468 13.4268 22.8727 13.4268 22.9999C13.4268 23.1272 13.452 23.2531 13.5011 23.3705C13.5502 23.4879 13.6222 23.5943 13.7128 23.6836C13.8034 23.7729 13.9108 23.8434 14.0289 23.8908C14.1469 23.9382 14.2732 23.9617 14.4004 23.9599H33.6004C33.7276 23.9617 33.8539 23.9382 33.972 23.8908C34.09 23.8434 34.1975 23.7729 34.2881 23.6836C34.3787 23.5943 34.4506 23.4879 34.4997 23.3705C34.5488 23.2531 34.5741 23.1272 34.5741 22.9999C34.5741 22.8727 34.5488 22.7468 34.4997 22.6294C34.4506 22.512 34.3787 22.4056 34.2881 22.3163C34.1975 22.2269 34.09 22.1565 33.972 22.1091C33.8539 22.0616 33.7276 22.0381 33.6004 22.0399H14.4004ZM14.4004 29.2399C14.2732 29.2381 14.1469 29.2616 14.0289 29.3091C13.9108 29.3565 13.8034 29.4269 13.7128 29.5163C13.6222 29.6056 13.5502 29.712 13.5011 29.8294C13.452 29.9468 13.4268 30.0727 13.4268 30.1999C13.4268 30.3272 13.452 30.4531 13.5011 30.5705C13.5502 30.6879 13.6222 30.7943 13.7128 30.8836C13.8034 30.9729 13.9108 31.0434 14.0289 31.0908C14.1469 31.1382 14.2732 31.1617 14.4004 31.1599H33.6004C33.7276 31.1617 33.8539 31.1382 33.972 31.0908C34.09 31.0434 34.1975 30.9729 34.2881 30.8836C34.3787 30.7943 34.4506 30.6879 34.4997 30.5705C34.5488 30.4531 34.5741 30.3272 34.5741 30.1999C34.5741 30.0727 34.5488 29.9468 34.4997 29.8294C34.4506 29.712 34.3787 29.6056 34.2881 29.5163C34.1975 29.4269 34.09 29.3565 33.972 29.3091C33.8539 29.2616 33.7276 29.2381 33.6004 29.2399H14.4004Z" fill="#CAC2D1"/>
</svg>
