<svg preserveAspectRatio="none" viewBox="0 0 49 49" fill="none" xmlns="http://www.w3.org/2000/svg" stroke="#FC5F02">
    <g clip-path="url(#clip0_553_622)">
        <path d="M8.90758 30.9604L7.27588 41.7241L18.0395 40.0924L8.90758 30.9604Z" stroke-width="2.56716" stroke-miterlimit="10" stroke-linecap="round" stroke-linejoin="round"/>
        <path d="M40.0924 18.0395L41.7241 7.27588L30.9604 8.90758L40.0924 18.0395Z" stroke-width="2.56716" stroke-miterlimit="10" stroke-linecap="round" stroke-linejoin="round"/>
        <path d="M40.0924 30.9604L30.9604 40.0924L41.7241 41.7241L40.0924 30.9604Z" stroke-width="2.56716" stroke-miterlimit="10" stroke-linecap="round" stroke-linejoin="round"/>
        <path d="M18.0395 8.90758L7.27588 7.27588L8.90758 18.0395L18.0395 8.90758Z" stroke-width="2.56716" stroke-miterlimit="10" stroke-linecap="round" stroke-linejoin="round"/>
        <path d="M40.0923 30.8271L48.86 24.3703L40.0923 17.9136V30.8271Z" stroke-width="2.56716" stroke-miterlimit="10" stroke-linecap="round" stroke-linejoin="round"/>
        <path d="M30.9464 8.90789L24.4897 0.140137L18.0259 8.90789H30.9464Z" stroke-width="2.56716" stroke-miterlimit="10" stroke-linecap="round" stroke-linejoin="round"/>
        <path d="M18.0259 40.0923L24.4897 48.86L30.9464 40.0923H18.0259Z" stroke-width="2.56716" stroke-miterlimit="10" stroke-linecap="round" stroke-linejoin="round"/>
        <path d="M8.90789 17.9136L0.140137 24.3703L8.90789 30.8271V17.9136Z" stroke-width="2.56716" stroke-miterlimit="10" stroke-linecap="round" stroke-linejoin="round"/>
        <path d="M8.76074 17.9136L17.5285 24.3703L8.76074 30.8271V17.9136Z" stroke-width="2.56716" stroke-miterlimit="10" stroke-linecap="round" stroke-linejoin="round"/>
        <path d="M40.2324 17.9136L31.4717 24.3703L40.2324 30.8271V17.9136Z" stroke-width="2.56716" stroke-miterlimit="10" stroke-linecap="round" stroke-linejoin="round"/>
        <path d="M18.0259 40.2393L24.4897 31.4785L30.9464 40.2393H18.0259Z" stroke-width="2.56716" stroke-miterlimit="10" stroke-linecap="round" stroke-linejoin="round"/>
        <path d="M18.0259 8.7749L24.4897 17.5357L30.9464 8.7749H18.0259Z" stroke-width="2.56716" stroke-miterlimit="10" stroke-linecap="round" stroke-linejoin="round"/>
        <path d="M31.2823 17.5845H17.7104V31.1563H31.2823V17.5845Z" stroke-width="2.56716" stroke-miterlimit="10" stroke-linecap="round" stroke-linejoin="round"/>
        <path d="M31.1124 24.2168L24.4868 17.5913L17.8613 24.2168L24.4868 30.8424L31.1124 24.2168Z" stroke-width="2.56716" stroke-miterlimit="10" stroke-linecap="round" stroke-linejoin="round"/>
        <path d="M24.4896 30.8341C26.6955 28.7682 28.9085 26.3522 31.1144 24.2793C26.6955 24.2793 22.2836 24.2793 17.8647 24.2793C20.0707 26.3522 22.2766 28.7682 24.4896 30.8341Z" stroke-width="2.56716" stroke-miterlimit="10" stroke-linecap="round" stroke-linejoin="round"/>
        <path d="M24.4896 17.6333C22.2836 19.6992 20.0707 22.1152 17.8647 24.1881C22.2836 24.1881 26.6955 24.1881 31.1144 24.1881C28.9015 22.1152 26.6955 19.6992 24.4896 17.6333Z" stroke-width="2.56716" stroke-miterlimit="10" stroke-linecap="round" stroke-linejoin="round"/>
        <path d="M17.7105 17.6333L8.90771 17.9134L17.6475 24.2301L17.7105 17.6333Z" stroke-width="2.56716" stroke-miterlimit="10" stroke-linecap="round" stroke-linejoin="round"/>
        <path d="M31.2686 17.5776L40.1484 17.9278L31.3316 24.3846L31.2686 17.5776Z" stroke-width="2.56716" stroke-miterlimit="10" stroke-linecap="round" stroke-linejoin="round"/>
        <path d="M8.90771 30.8274L17.7105 31.1565L17.7385 24.3706L8.90771 30.8274Z" stroke-width="2.56716" stroke-miterlimit="10" stroke-linecap="round" stroke-linejoin="round"/>
        <path d="M39.9872 30.7573L31.4575 31.1565L31.4365 24.3706L39.9872 30.7573Z" stroke-width="2.56716" stroke-miterlimit="10" stroke-linecap="round" stroke-linejoin="round"/>
    </g>
    <defs>
        <clipPath id="clip0_553_622">
            <rect width="49" height="49"/>
        </clipPath>
    </defs>
</svg>
