<svg xmlns="http://www.w3.org/2000/svg" version="1.1" xmlns:xlink="http://www.w3.org/1999/xlink" xmlns:svgjs="http://svgjs.com/svgjs" width="49" height="49"><svg width="49" height="49" viewBox="0 0 49 49" fill="none" xmlns="http://www.w3.org/2000/svg">
<g clip-path="url(#clip0_553_452)">
<path d="M8.90807 30.9604L7.27637 41.7241L18.04 40.0924L8.90807 30.9604Z" stroke="#FC5F02" stroke-width="2.56716" stroke-miterlimit="10" stroke-linecap="round" stroke-linejoin="round"></path>
<path d="M40.0919 18.0395L41.7236 7.27588L30.96 8.90758L40.0919 18.0395Z" stroke="#FC5F02" stroke-width="2.56716" stroke-miterlimit="10" stroke-linecap="round" stroke-linejoin="round"></path>
<path d="M40.0919 30.9604L30.96 40.0924L41.7236 41.7241L40.0919 30.9604Z" stroke="#FC5F02" stroke-width="2.56716" stroke-miterlimit="10" stroke-linecap="round" stroke-linejoin="round"></path>
<path d="M18.04 8.90758L7.27637 7.27588L8.90807 18.0395L18.04 8.90758Z" stroke="#FC5F02" stroke-width="2.56716" stroke-miterlimit="10" stroke-linecap="round" stroke-linejoin="round"></path>
<path d="M40.0918 30.8271L48.8596 24.3703L40.0918 17.9136V30.8271Z" stroke="#FC5F02" stroke-width="2.56716" stroke-miterlimit="10" stroke-linecap="round" stroke-linejoin="round"></path>
<path d="M30.9459 8.90789L24.4892 0.140137L18.0254 8.90789H30.9459Z" stroke="#FC5F02" stroke-width="2.56716" stroke-miterlimit="10" stroke-linecap="round" stroke-linejoin="round"></path>
<path d="M18.0254 40.0923L24.4892 48.86L30.9459 40.0923H18.0254Z" stroke="#FC5F02" stroke-width="2.56716" stroke-miterlimit="10" stroke-linecap="round" stroke-linejoin="round"></path>
<path d="M8.90741 17.9136L0.139648 24.3703L8.90741 30.8271V17.9136Z" stroke="#FC5F02" stroke-width="2.56716" stroke-miterlimit="10" stroke-linecap="round" stroke-linejoin="round"></path>
<path d="M8.76074 17.9136L17.5285 24.3703L8.76074 30.8271V17.9136Z" stroke="#FC5F02" stroke-width="2.56716" stroke-miterlimit="10" stroke-linecap="round" stroke-linejoin="round"></path>
<path d="M40.2324 17.9136L31.4717 24.3703L40.2324 30.8271V17.9136Z" stroke="#FC5F02" stroke-width="2.56716" stroke-miterlimit="10" stroke-linecap="round" stroke-linejoin="round"></path>
<path d="M18.0254 40.2393L24.4892 31.4785L30.9459 40.2393H18.0254Z" stroke="#FC5F02" stroke-width="2.56716" stroke-miterlimit="10" stroke-linecap="round" stroke-linejoin="round"></path>
<path d="M18.0254 8.7749L24.4892 17.5357L30.9459 8.7749H18.0254Z" stroke="#FC5F02" stroke-width="2.56716" stroke-miterlimit="10" stroke-linecap="round" stroke-linejoin="round"></path>
<path d="M31.2828 17.5845H17.7109V31.1563H31.2828V17.5845Z" stroke="#FC5F02" stroke-width="2.56716" stroke-miterlimit="10" stroke-linecap="round" stroke-linejoin="round"></path>
<path d="M31.1128 24.2168L24.4873 17.5913L17.8618 24.2168L24.4873 30.8424L31.1128 24.2168Z" stroke="#FC5F02" stroke-width="2.56716" stroke-miterlimit="10" stroke-linecap="round" stroke-linejoin="round"></path>
<path d="M24.4891 30.8341C26.695 28.7682 28.908 26.3522 31.1139 24.2793C26.695 24.2793 22.2832 24.2793 17.8643 24.2793C20.0702 26.3522 22.2761 28.7682 24.4891 30.8341Z" stroke="#FC5F02" stroke-width="2.56716" stroke-miterlimit="10" stroke-linecap="round" stroke-linejoin="round"></path>
<path d="M24.4891 17.6333C22.2832 19.6992 20.0702 22.1152 17.8643 24.1881C22.2832 24.1881 26.695 24.1881 31.1139 24.1881C28.901 22.1152 26.695 19.6992 24.4891 17.6333Z" stroke="#FC5F02" stroke-width="2.56716" stroke-miterlimit="10" stroke-linecap="round" stroke-linejoin="round"></path>
<path d="M17.711 17.6333L8.9082 17.9134L17.6479 24.2301L17.711 17.6333Z" stroke="#FC5F02" stroke-width="2.56716" stroke-miterlimit="10" stroke-linecap="round" stroke-linejoin="round"></path>
<path d="M31.2686 17.5776L40.1484 17.9278L31.3316 24.3846L31.2686 17.5776Z" stroke="#FC5F02" stroke-width="2.56716" stroke-miterlimit="10" stroke-linecap="round" stroke-linejoin="round"></path>
<path d="M8.9082 30.8274L17.711 31.1565L17.739 24.3706L8.9082 30.8274Z" stroke="#FC5F02" stroke-width="2.56716" stroke-miterlimit="10" stroke-linecap="round" stroke-linejoin="round"></path>
<path d="M39.9872 30.7573L31.4575 31.1565L31.4365 24.3706L39.9872 30.7573Z" stroke="#FC5F02" stroke-width="2.56716" stroke-miterlimit="10" stroke-linecap="round" stroke-linejoin="round"></path>
</g>
<defs>
<clipPath id="SvgjsClipPath1000">
<rect width="49" height="49" fill="white"></rect>
</clipPath>
</defs>
</svg><style>@media (prefers-color-scheme: light) { :root { filter: none; } }
</style></svg>